<svg xmlns="http://www.w3.org/2000/svg" xmlns:xlink="http://www.w3.org/1999/xlink" version="1.0" x="0px" y="0px" viewBox="0 0 100 100" enable-background="new 0 0 100 100" xml:space="preserve"><path d="M48.7430992,78.8184128c2.5602493,1.6739883,6.0067291,1.2801056,8.9608536,0.8862305  c3.3480034-0.3938751,6.696003-1.6740189,8.7638969-4.4311905c1.0831757-1.4770584,1.6740036-3.1510773,1.8709412-4.9235382  c8.763916,3.4464798,21.3681717,0.9847107,25.4054871-8.173069c3.0526047-6.7944832,1.7724762-19.6941719-5.6128387-23.633007  c-0.5908279-4.3327408-1.7724762-8.1730976-5.4158936-11.0287476c-3.6434174-2.7572021-8.0746078-4.3327103-12.7027359-4.0373096  c-6.3021431-7.2868385-18.6110001-8.1730995-27.1779633-4.5296669C38.108242,16.6832981,33.1847,16.9786987,28.261158,19.1450691  c-5.5143585,2.3632946-9.157793,5.317421-11.0287323,10.1424866C8.2715721,33.0294342,4.1357989,41.8918114,5.2189994,51.64048  c0.3938775,3.7418823,1.1816473,7.3853149,3.3480029,10.240963c-0.6892929,8.0745964,3.9388342,14.967556,11.1272097,17.6262779  C37.0234985,94.6582489,48.7430992,78.8184128,48.7430992,78.8184128z M39.7167702,74.1466522l9.3547325-22.5498238  l-17.2324009,3.0526047L42.6708946,29.342411l18.0201721-2.7571735L46.7082062,43.5222359l16.936985-2.2648163  L39.7167702,74.1466522z"></path></svg>