<svg xmlns="http://www.w3.org/2000/svg" xmlns:xlink="http://www.w3.org/1999/xlink" version="1.1" x="0px" y="0px" viewBox="0 0 100 100" enable-background="new 0 0 100 100" xml:space="preserve"><path d="M50,25c-1.4,0-2.5,1.1-2.5,2.5V50c0,1.4,1.1,2.5,2.5,2.5h12.5c1.4,0,2.5-1.1,2.5-2.5s-1.1-2.5-2.5-2.5h-10v-20  C52.5,26.1,51.4,25,50,25z"></path><path d="M15.7,56.8c0.5,0.5,1.1,0.7,1.8,0.7s1.3-0.2,1.8-0.7l10-10c1-1,1-2.6,0-3.5c-1-1-2.6-1-3.5,0L20,48.9  C20.6,32.9,33.8,20,50,20c16.5,0,30,13.5,30,30S66.5,80,50,80c-1.4,0-2.5,1.1-2.5,2.5S48.6,85,50,85c19.3,0,35-15.7,35-35  S69.3,15,50,15c-19,0-34.4,15.2-35,34l-5.8-5.8c-1-1-2.6-1-3.5,0c-1,1-1,2.6,0,3.5L15.7,56.8z"></path></svg>