<?xml version="1.0" encoding="UTF-8" standalone="no"?>
<svg
   xmlns:dc="http://purl.org/dc/elements/1.1/"
   xmlns:cc="http://creativecommons.org/ns#"
   xmlns:rdf="http://www.w3.org/1999/02/22-rdf-syntax-ns#"
   xmlns:svg="http://www.w3.org/2000/svg"
   xmlns="http://www.w3.org/2000/svg"
   xmlns:sodipodi="http://sodipodi.sourceforge.net/DTD/sodipodi-0.dtd"
   xmlns:inkscape="http://www.inkscape.org/namespaces/inkscape"
   height="35.01458"
   width="44.639076"
   id="svg2"
   xml:space="preserve"
   enable-background="new 0 0 100 100"
   viewBox="0 0 44.639081 35.01458"
   y="0px"
   x="0px"
   version="1.0"
   inkscape:version="0.91 r13725"
   sodipodi:docname="logo_picto.svg"><sodipodi:namedview
     pagecolor="#ffffff"
     bordercolor="#666666"
     borderopacity="1"
     objecttolerance="10"
     gridtolerance="10"
     guidetolerance="10"
     inkscape:pageopacity="0"
     inkscape:pageshadow="2"
     inkscape:window-width="1920"
     inkscape:window-height="1016"
     id="namedview10"
     showgrid="false"
     inkscape:zoom="1.1914837"
     inkscape:cx="61.777798"
     inkscape:cy="34.334276"
     inkscape:window-x="0"
     inkscape:window-y="27"
     inkscape:window-maximized="1"
     inkscape:current-layer="g4146" /><metadata
     id="metadata10"><rdf:RDF><cc:Work
         rdf:about=""><dc:format>image/svg+xml</dc:format><dc:type
           rdf:resource="http://purl.org/dc/dcmitype/StillImage" /><dc:title /></cc:Work></rdf:RDF></metadata><defs
     id="defs8" /><g
     transform="matrix(1.0481998,0,0,1.0481998,-3.6212038,-15.979994)"
     id="g4156"><g
       id="g4146"
       transform="matrix(0.25146878,0,0,0.25146878,9.0297424,-3.3212662)"
       style="fill:#303030;fill-opacity:1"><path
         inkscape:connector-curvature="0"
         style="opacity:1;fill:#303030;fill-opacity:1;stroke:none;stroke-width:0;stroke-miterlimit:4;stroke-dasharray:none;stroke-opacity:1"
         d="m 60.031028,187.73587 c 4.44422,2.90581 10.42681,2.22208 15.55474,1.53837 5.81165,-0.68371 11.6233,-2.90586 15.21286,-7.69191 1.88024,-2.56396 2.90583,-5.46981 3.24769,-8.54655 15.212882,5.98259 37.092052,1.70932 44.100252,-14.18727 5.29888,-11.79424 3.07676,-34.18623 -9.74308,-41.02349 -1.02559,-7.521 -3.07676,-14.18731 -9.40121,-19.144293 -6.32444,-4.78611 -14.01635,-7.52097 -22.050112,-7.00819 -10.93961,-12.6489 -32.30601,-14.18732 -47.17702,-7.86285 -8.2047,-3.9314 -16.75125,-3.41862 -25.29782,0.34186 -9.57213,4.10234 -15.8966005,9.23027 -19.1442805,17.605893 -15.5547495,6.49535 -22.7338495,21.87916 -20.8535695,38.80144 0.68371,6.49537 2.05117,12.81984 5.81165,17.77684 -1.19652,14.01633 6.8372395,25.98151 19.3152295,30.59667 30.0811305,26.29912 50.4246705,-1.19654 50.4246705,-1.19654 z"
         id="path4" /></g></g></svg>