<?xml version="1.0" encoding="UTF-8" standalone="no"?>
<svg
   xmlns:dc="http://purl.org/dc/elements/1.1/"
   xmlns:cc="http://creativecommons.org/ns#"
   xmlns:rdf="http://www.w3.org/1999/02/22-rdf-syntax-ns#"
   xmlns:svg="http://www.w3.org/2000/svg"
   xmlns="http://www.w3.org/2000/svg"
   xmlns:sodipodi="http://sodipodi.sourceforge.net/DTD/sodipodi-0.dtd"
   xmlns:inkscape="http://www.inkscape.org/namespaces/inkscape"
   version="1.0"
   x="0px"
   y="0px"
   viewBox="0 0 118.47772 35.014584"
   enable-background="new 0 0 100 100"
   xml:space="preserve"
   id="svg2"
   inkscape:version="0.91 r13725"
   sodipodi:docname="logo.svg"
   width="118.47771"
   height="35.014584"><metadata
     id="metadata10"><rdf:RDF><cc:Work
         rdf:about=""><dc:format>image/svg+xml</dc:format><dc:type
           rdf:resource="http://purl.org/dc/dcmitype/StillImage" /><dc:title></dc:title></cc:Work></rdf:RDF></metadata><defs
     id="defs8" /><sodipodi:namedview
     pagecolor="#ffffff"
     bordercolor="#666666"
     borderopacity="1"
     objecttolerance="10"
     gridtolerance="10"
     guidetolerance="10"
     inkscape:pageopacity="0"
     inkscape:pageshadow="2"
     inkscape:window-width="1920"
     inkscape:window-height="1016"
     id="namedview6"
     showgrid="false"
     inkscape:zoom="2.36"
     inkscape:cx="66.495306"
     inkscape:cy="1.678568"
     inkscape:window-x="0"
     inkscape:window-y="27"
     inkscape:window-maximized="1"
     inkscape:current-layer="svg2"
     fit-margin-top="1"
     fit-margin-left="1"
     fit-margin-right="1"
     fit-margin-bottom="1" /><g
     id="g4156"
     transform="matrix(1.0481998,0,0,1.0481998,-3.6212039,-15.979992)"><path
       sodipodi:nodetypes="ccccccccccccccc"
       inkscape:connector-curvature="0"
       id="path4"
       d="m 24.122592,43.905024 c 1.117584,0.730718 2.622018,0.558783 3.911533,0.386851 1.461449,-0.171932 2.922896,-0.730732 3.825559,-1.934274 0.472821,-0.644756 0.730725,-1.375487 0.816691,-2.14919 3.825567,1.504434 9.327494,0.429839 11.089836,-3.567655 1.332504,-2.965883 0.77371,-8.59677 -2.450079,-10.316125 -0.257905,-1.891299 -0.77371,-3.567667 -2.36411,-4.814196 -1.590401,-1.203556 -3.524675,-1.891287 -5.544915,-1.76234 -2.75097,-3.180803 -8.123952,-3.567668 -11.863546,-1.97726 -2.063227,-0.988624 -4.212419,-0.859677 -6.361611,0.08597 -2.407092,1.03161 -3.9975,2.321125 -4.81419,4.427331 -3.9115329,1.63338 -5.7168535,5.501927 -5.2440219,9.757352 0.1719328,1.633382 0.5158049,3.223789 1.4614482,4.470318 -0.3008856,3.52467 1.7193543,6.533539 4.8571767,7.694107 7.564466,6.613409 12.680229,-0.300892 12.680229,-0.300892 z"
       style="opacity:1;fill:#b9b9b9;fill-opacity:1;stroke:#303030;stroke-width:1.28601432;stroke-miterlimit:4;stroke-dasharray:none;stroke-opacity:1" /><g
       style="fill:#303030;fill-opacity:1"
       transform="matrix(0.25146878,0,0,0.25146878,9.0297424,-3.3212662)"
       id="g4146"><path
         style="fill:#303030;fill-opacity:1"
         inkscape:connector-curvature="0"
         d="m 61.380932,111.01695 c -1.4,0 -2.5,1.1 -2.5,2.5 l 0,22.5 c 0,1.4 1.1,2.5 2.5,2.5 l 12.5,0 c 1.4,0 2.5,-1.1 2.5,-2.5 0,-1.4 -1.1,-2.5 -2.5,-2.5 l -10,0 0,-20 c 0,-1.4 -1.1,-2.5 -2.5,-2.5 z"
         id="path4-3" /><path
         style="fill:#303030;fill-opacity:1"
         inkscape:connector-curvature="0"
         d="m 27.080932,142.81695 c 0.5,0.5 1.1,0.7 1.8,0.7 0.7,0 1.3,-0.2 1.8,-0.7 l 10,-10 c 1,-1 1,-2.6 0,-3.5 -1,-1 -2.6,-1 -3.5,0 l -5.8,5.6 c 0.6,-16 13.8,-28.9 30,-28.9 16.5,0 30,13.5 30,30 0,16.5 -13.5,30 -30,30 -1.4,0 -2.5,1.1 -2.5,2.5 0,1.4 1.1,2.5 2.5,2.5 19.3,0 35,-15.7 35,-35 0,-19.3 -15.7,-35 -35,-35 -19,0 -34.4,15.2 -35,34 l -5.8,-5.8 c -1,-1 -2.6,-1 -3.5,0 -1,1 -1,2.6 0,3.5 l 10,10.1 z"
         id="path6-6" /></g></g><text
     xml:space="preserve"
     style="font-style:normal;font-weight:normal;font-size:14.3527813px;line-height:125%;font-family:sans-serif;letter-spacing:0px;word-spacing:0px;fill:#000000;fill-opacity:1;stroke:none;stroke-width:1px;stroke-linecap:butt;stroke-linejoin:miter;stroke-opacity:1"
     x="45.924999"
     y="28.468203"
     id="text4150"
     sodipodi:linespacing="125%"><tspan
       sodipodi:role="line"
       x="45.924999"
       y="28.468203"
       style="font-style:normal;font-variant:normal;font-weight:normal;font-stretch:normal;font-size:20px;font-family:'URW Gothic L';-inkscape-font-specification:'URW Gothic L';text-align:start;text-anchor:start;fill:#303030;fill-opacity:1"
       id="tspan4208">activité</tspan></text>
<text
     xml:space="preserve"
     style="font-style:normal;font-weight:normal;font-size:40px;line-height:125%;font-family:sans-serif;letter-spacing:0px;word-spacing:0px;fill:#b9b9b9;fill-opacity:1;stroke:none;stroke-width:1px;stroke-linecap:butt;stroke-linejoin:miter;stroke-opacity:1"
     x="45.783497"
     y="15.190756"
     id="text4168"
     sodipodi:linespacing="125%"><tspan
       sodipodi:role="line"
       id="tspan4170"
       x="45.783497"
       y="15.190756"
       style="font-style:normal;font-variant:normal;font-weight:normal;font-stretch:normal;font-size:15.625px;font-family:'URW Gothic L';-inkscape-font-specification:'URW Gothic L';fill:#b9b9b9;fill-opacity:1">mon</tspan></text>
</svg>